<?xml version="1.0" standalone="no"?>
<!DOCTYPE svg PUBLIC "-//W3C//DTD SVG 20010904//EN"
 "http://www.w3.org/TR/2001/REC-SVG-20010904/DTD/svg10.dtd">
<svg version="1.0" xmlns="http://www.w3.org/2000/svg"
 width="300.000000pt" height="300.000000pt" viewBox="0 0 300.000000 300.000000"
 preserveAspectRatio="xMidYMid meet">
<metadata>
Created by potrace 1.14, written by Peter Selinger 2001-2017
</metadata>
<g transform="translate(0.000000,300.000000) scale(0.100000,-0.100000)"
fill="#000000" stroke="none">
<path d="M0 1500 l0 -1500 1152 0 1152 0 -45 28 c-57 37 -122 108 -152 169
-91 180 -109 478 -41 683 32 95 65 151 126 216 150 159 405 175 574 38 l54
-44 0 311 0 311 23 -5 c12 -3 52 -9 90 -12 l67 -7 0 656 0 656 -1500 0 -1500
0 0 -1500z"/>
<path d="M2446 1054 c-98 -31 -166 -129 -196 -281 -19 -98 -8 -352 19 -435 41
-126 118 -195 229 -205 105 -10 197 35 280 136 l42 52 0 298 0 298 -40 46
c-79 90 -219 128 -334 91z"/>
<path d="M2775 102 c-22 -25 -62 -57 -90 -73 l-50 -29 102 0 103 0 -6 63 c-4
34 -9 67 -13 72 -3 6 -24 -9 -46 -33z"/>
</g>
</svg>
